<svg xmlns="http://www.w3.org/2000/svg" width="116.184" height="45.8" viewBox="0 0 116.184 45.8">
  <g id="Logo" transform="translate(-371.746 -522.399)">
    <path id="Caminho_3" data-name="Caminho 3" d="M406.152,522.4H376.334a4.588,4.588,0,0,0-4.588,4.588v24.772a4.588,4.588,0,0,0,4.588,4.588h29.819a4.588,4.588,0,0,0,4.588-4.588V526.987A4.588,4.588,0,0,0,406.152,522.4Zm-28.442,4.588h27.066a1.376,1.376,0,0,1,1.376,1.376v7.022c-.032,0-.063-.009-.1-.009h-6.818a4.588,4.588,0,0,0-4.588,4.588v11.745c0,.017,0,.034,0,.051h-6.864c0-.035.011-.068.011-.1V539.832a4.587,4.587,0,0,0-4.588-4.588h-6.881v-6.881A1.376,1.376,0,0,1,377.71,526.987Zm-1.376,11.922c.021,0,.041.006.063.006h6.36a1.376,1.376,0,0,1,1.376,1.376v11.286c0,.062.011.122.017.182h-7.815Zm21.987,12.851V540.422a1.376,1.376,0,0,1,1.376-1.376h6.438l.016,0v12.715Z" transform="translate(0 0)" fill="#fccd2a"/>
    <g id="Grupo_79" data-name="Grupo 79" transform="translate(417.183 523.506)">
      <path id="Caminho_4" data-name="Caminho 4" d="M535.407,526.388H545.1v2.619h-3.4v30.4H538.81v-30.4h-3.4Z" transform="translate(-535.407 -526.388)" fill="#fff"/>
      <path id="Caminho_5" data-name="Caminho 5" d="M591.745,526.388H594.5v11.419a3.949,3.949,0,0,1,1.422-1.467,3.851,3.851,0,0,1,1.981-.5,2.679,2.679,0,0,1,2.474,1.175,8.337,8.337,0,0,1,.727,4.108v18.292H598.35V541.7a6.063,6.063,0,0,0-.436-2.743,1.8,1.8,0,0,0-2.967.022,5.939,5.939,0,0,0-.448,2.72v17.71h-2.754Z" transform="translate(-576.104 -526.388)" fill="#fff"/>
      <path id="Caminho_6" data-name="Caminho 6" d="M662.039,566.98v6.829h-6.515v4.859a6.553,6.553,0,0,0,.4,2.8,1.49,1.49,0,0,0,1.433.739,1.439,1.439,0,0,0,1.388-.761,6.574,6.574,0,0,0,.4-2.776v-2.553h2.888V578q0,3.806-1.03,5.183t-3.649,1.377a4.253,4.253,0,0,1-3.638-1.4q-1.041-1.4-1.041-5.206V566.98q0-3.829,1.019-5.194t3.661-1.366a4.254,4.254,0,0,1,3.638,1.4Q662.039,563.219,662.039,566.98Zm-2.888-.694a6.479,6.479,0,0,0-.4-2.776,1.448,1.448,0,0,0-1.388-.739,1.474,1.474,0,0,0-1.422.784,6.352,6.352,0,0,0-.414,2.731v5.194h3.627Z" transform="translate(-620.121 -550.972)" fill="#fff"/>
      <path id="Caminho_7" data-name="Caminho 7" d="M720.084,560.465v2.8h-.47a3.108,3.108,0,0,0-2.508.885,4.835,4.835,0,0,0-.739,3.056V584h-2.754V560.98h2.575l.179,1.411a4.363,4.363,0,0,1,1.422-1.456,3.427,3.427,0,0,1,1.825-.515,1.866,1.866,0,0,1,.224.022A1.792,1.792,0,0,0,720.084,560.465Z" transform="translate(-664.138 -550.972)" fill="#fff"/>
      <path id="Caminho_8" data-name="Caminho 8" d="M764.472,566.353V584H761.9l-.179-1.411a3.95,3.95,0,0,1-1.422,1.466,3.853,3.853,0,0,1-1.981.5,2.678,2.678,0,0,1-2.474-1.175,8.33,8.33,0,0,1-.728-4.109v-4.59a4.593,4.593,0,0,1,1.467-3.851q1.466-1.142,5.138-1.276v-3.269a6.634,6.634,0,0,0-.392-2.8,1.455,1.455,0,0,0-1.4-.717,1.5,1.5,0,0,0-1.377.661,4.531,4.531,0,0,0-.414,2.272v1.276h-2.754v-.627q0-3.447,1.008-4.69t3.582-1.243a4.244,4.244,0,0,1,3.5,1.254Q764.471,562.928,764.472,566.353Zm-2.776,5.441a4.937,4.937,0,0,0-2.922.761,3.1,3.1,0,0,0-.772,2.418v3.695a6.549,6.549,0,0,0,.4,2.8,1.489,1.489,0,0,0,1.433.739,1.517,1.517,0,0,0,1.444-.795,6.147,6.147,0,0,0,.436-2.742Z" transform="translate(-694.116 -550.972)" fill="#fff"/>
    </g>
    <g id="Grupo_80" data-name="Grupo 80" transform="translate(372.756 560.446)">
      <path id="Caminho_9" data-name="Caminho 9" d="M377.5,671.966a.7.7,0,0,0-.592-.444.527.527,0,0,0-.537.481c0,.4.5.546,1.008.759a1.324,1.324,0,0,1,1.009,1.249,1.423,1.423,0,0,1-1.471,1.415,1.563,1.563,0,0,1-1.536-1.1l.657-.278c.185.407.4.694.888.694a.661.661,0,0,0,.7-.666c0-.972-1.961-.639-1.961-2.008a1.239,1.239,0,0,1,1.3-1.23,1.314,1.314,0,0,1,1.156.8Z" transform="translate(-375.384 -667.673)" fill="#fff"/>
      <path id="Caminho_10" data-name="Caminho 10" d="M425.369,673.141a2.285,2.285,0,1,1,2.285,2.285A2.283,2.283,0,0,1,425.369,673.141Zm.74-.009a1.546,1.546,0,1,0,1.545-1.61A1.54,1.54,0,0,0,426.109,673.132Z" transform="translate(-411.492 -667.673)" fill="#fff"/>
      <path id="Caminho_11" data-name="Caminho 11" d="M482.96,667.072h-.74v-7.633h.74Z" transform="translate(-452.559 -659.439)" fill="#fff"/>
      <path id="Caminho_12" data-name="Caminho 12" d="M527.18,673.694c0,.731.083,1.36.981,1.36s.981-.629.981-1.36V671.27h.74v2.507c0,1.157-.435,1.961-1.721,1.961s-1.721-.8-1.721-1.961V671.27h.74Z" transform="translate(-484.502 -667.985)" fill="#fff"/>
      <path id="Caminho_13" data-name="Caminho 13" d="M580.185,671.55h-.74v-3.664h-.453V667.2h.453v-1.563h.74V667.2h.777v.685h-.777Z" transform="translate(-522.464 -663.917)" fill="#fff"/>
      <path id="Caminho_14" data-name="Caminho 14" d="M626.267,664a.528.528,0,1,1-1.055,0,.528.528,0,0,1,1.055,0Zm-.157,5.986h-.74v-4.349h.74Z" transform="translate(-555.852 -662.352)" fill="#fff"/>
      <path id="Caminho_15" data-name="Caminho 15" d="M669.4,673.141a2.285,2.285,0,1,1,2.285,2.285A2.282,2.282,0,0,1,669.4,673.141Zm.74-.009a1.546,1.546,0,1,0,1.545-1.61A1.54,1.54,0,0,0,670.139,673.132Z" transform="translate(-587.771 -667.673)" fill="#fff"/>
      <path id="Caminho_16" data-name="Caminho 16" d="M727.056,671.485h.019a1.459,1.459,0,0,1,1.24-.648c1.2,0,1.48.87,1.48,1.887v2.581h-.74v-2.452c0-.7-.056-1.332-.916-1.332-1.018,0-1.083.944-1.083,1.721v2.063h-.74v-4.349h.74Z" transform="translate(-628.887 -667.673)" fill="#fff"/>
      <path id="Caminho_17" data-name="Caminho 17" d="M781.52,671.966a.694.694,0,0,0-.592-.444.527.527,0,0,0-.537.481c0,.4.5.546,1.009.759a1.324,1.324,0,0,1,1.008,1.249,1.422,1.422,0,0,1-1.471,1.415,1.564,1.564,0,0,1-1.536-1.1l.657-.278c.185.407.4.694.888.694a.661.661,0,0,0,.7-.666c0-.972-1.961-.639-1.961-2.008a1.239,1.239,0,0,1,1.3-1.23,1.314,1.314,0,0,1,1.157.8Z" transform="translate(-667.234 -667.673)" fill="#fff"/>
    </g>
  </g>
</svg>
